<svg width="168" height="80" viewBox="0 0 168 80" fill="none" xmlns="http://www.w3.org/2000/svg">
<path d="M56.4945 31.589C55.4163 31.0139 54.2066 30.9093 53.0495 30.6218C52.8917 30.5695 52.7076 30.4126 52.655 30.2819C52.5498 29.9682 52.8391 29.8114 53.0495 29.7852C53.9962 29.6545 54.9429 29.5761 55.8633 29.4454C58.309 29.1056 60.781 28.8964 63.2267 29.4715C63.6737 29.5761 64.0945 29.5238 64.5152 29.2886C64.9623 29.0271 65.4356 28.8703 65.8827 28.6089C66.4875 28.269 67.3554 28.3736 67.7235 27.6155C67.0924 27.2495 66.3824 27.4064 65.6986 27.328C59.2031 26.6221 52.655 26.9881 46.1595 26.9881C43.1353 26.9881 40.3214 27.9292 38.0335 30.0728C36.4294 31.589 34.6412 32.896 32.8266 34.177C29.6183 36.4513 25.9892 37.3924 22.1235 37.4708C20.8086 37.4969 19.4674 37.4708 18.1525 37.2878C15.7332 36.948 13.3664 37.131 10.9996 37.8106C8.8695 38.4119 6.73939 39.0393 4.68818 39.8235C3.347 40.3463 1.90064 40.6077 0.454269 40.7646C0.32278 40.7907 0.0860763 40.6339 0.0334811 40.5032C-0.098007 40.2418 0.191292 40.1895 0.32278 40.1633C3.97815 39.536 6.29234 37.0787 8.34355 34.2815C9.73732 32.3994 11.2363 30.6217 13.0508 29.1317C16.1276 26.6221 19.7041 25.3151 23.5962 24.6877C25.2266 24.4262 26.8571 24.2433 28.4875 24.0341C30.1443 23.825 31.7747 24.1126 33.3789 24.4785C35.2986 24.923 37.192 25.3674 39.0854 25.8902C39.8481 26.0993 40.5844 26.1777 41.3471 26.0732C43.9768 25.681 46.6592 25.7072 49.3152 25.7333C51.7083 25.7595 54.1277 25.7333 56.6523 25.7333C55.6792 24.7138 53.4439 23.5897 52.3131 23.642C47.6848 23.8511 43.819 22.0212 40.3477 19.1718C38.8488 17.9432 37.455 16.5577 35.9823 15.2506C32.7214 12.349 29.145 10.0747 24.7007 9.44728C24.201 9.36886 23.3332 9.42112 23.3069 8.74144C23.2543 7.87878 24.1747 8.00948 24.7269 7.8265C29.2501 6.33644 33.747 7.04227 38.165 8.29705C41.3996 9.23814 44.4765 10.4929 47.001 12.8718C48.7104 14.4926 50.1041 16.3486 51.4453 18.2569C52.4183 19.6424 53.3651 21.054 54.5484 22.3088C55.8896 23.7204 57.4938 24.6877 59.4135 25.0275C60.8336 25.2889 62.2537 25.6026 63.7 25.7856C67.9076 26.3607 72.1415 26.5176 76.3755 26.7528C78.5319 26.8835 80.662 27.0927 82.7658 27.5371C83.0551 27.5894 83.3443 27.5632 83.7125 27.5894C80.4779 25.7333 77.1907 24.3478 73.7983 23.1192C71.2211 22.1781 69.1436 20.3743 67.0135 18.649C63.8315 16.0872 61.228 13.0286 59.3346 9.39497C57.4149 5.68291 54.5747 2.91193 50.6038 1.39574C50.4197 1.31731 50.2619 1.23888 50.0779 1.16045C49.8412 1.05589 49.6571 0.872917 49.6571 0.585358C49.6834 0.193237 50.0253 0.114815 50.3408 0.0625305C50.5775 0.0102463 50.8405 -0.0158768 51.1035 0.0102615C56.4156 0.350098 61.6751 0.925186 66.6979 2.85964C69.9851 4.14057 72.6675 6.20575 74.6398 9.05516C75.5602 10.3622 76.6647 10.8589 78.0848 10.9896C80.7146 11.251 83.3706 11.4863 86.0267 11.7739C89.235 12.1137 92.4696 12.2967 95.6253 12.8718C98.9914 13.473 102.042 14.8324 104.803 16.7669C106.933 18.2569 108.274 20.4005 109.353 22.7009C110.299 24.6877 111.194 26.7006 112.219 28.6612C113.481 31.1446 115.007 33.4189 117.242 35.1704C118.583 36.216 119.845 37.3662 121.108 38.5164C122.554 39.7974 124.185 40.6862 125.973 41.392C129.812 42.882 133.599 44.4505 137.412 45.9667C138.149 46.2543 138.885 46.6464 139.805 46.7248C139.674 46.1497 139.2 45.9144 138.885 45.6007C137.333 44.0845 136.045 42.3592 135.23 40.3725C134.94 39.6405 134.493 39.0915 133.941 38.5426C132.6 37.2878 131.364 35.9546 130.47 34.3338C128.471 30.7525 128.418 27.3018 131.074 23.9557C132.521 22.1258 134.02 20.3482 135.177 18.3092C137.149 14.8063 137.018 11.4863 134.756 8.21862C134.677 8.11405 134.598 8.0095 134.546 7.90493C134.362 7.64352 134.23 7.35595 134.414 7.04226C134.598 6.72856 134.914 6.70242 135.256 6.78085C135.677 6.88541 136.124 6.96384 136.518 7.14683C138.359 8.00949 140.2 8.81989 141.962 9.81326C144.013 10.9896 145.749 12.5319 146.774 14.754C147.905 17.2112 148.063 19.7208 147.09 22.2565C146.222 24.5308 144.881 26.4914 143.277 28.2952C142.277 29.4193 141.199 30.491 140.147 31.589C139.069 32.7392 137.991 33.9156 137.228 35.3011C135.834 37.8106 136.071 40.2418 137.754 42.5422C140.41 46.1758 143.829 48.6854 148.221 49.9402C153.217 51.378 158.24 52.6328 163.394 53.234C164.657 53.3647 165.919 53.4432 167.181 53.3386C167.47 53.3124 167.97 53.2079 167.996 53.4954C168.049 53.9398 167.523 54.0444 167.181 54.0705C166.366 54.1228 165.524 54.2012 164.709 54.149C160.528 53.9137 156.452 53.0772 152.376 52.0838C146.275 50.5937 140.463 48.2933 134.625 46.019C133.573 45.6008 132.468 45.2348 131.469 44.7119C128.497 43.1696 125.394 43.2219 122.212 43.8493C120.398 44.1891 118.662 44.7642 116.926 45.3393C116.164 45.6007 115.769 45.9929 115.848 46.8294C115.901 47.5875 115.874 48.3456 115.874 49.1037C115.822 51.4303 114.954 53.3647 113.087 54.8548C112.351 55.456 111.588 56.005 110.852 56.6063C108.459 58.4884 107.223 60.8934 107.354 63.9781C107.486 66.7752 107.17 69.4939 106.302 72.1604C105.513 74.6176 104.172 76.7351 102.358 78.5127C100.648 80.1857 98.7547 80.3687 96.572 79.4538C95.8357 79.1401 95.8094 78.6957 96.4931 78.2251C96.6509 78.1206 96.8087 78.016 96.9928 77.9376C98.9914 77.1533 99.4385 75.4803 99.2807 73.6243C99.0966 71.533 98.5181 69.5462 97.1506 67.8732C96.2039 66.6968 95.1519 65.5989 94.0474 64.5794C92.9692 63.586 91.9962 62.5403 91.1547 61.3378C88.7616 57.8872 89.0772 53.6784 91.9962 50.6199C93.9949 48.5024 96.5457 47.2215 99.2544 46.2804C104.146 44.5812 109.195 43.8231 114.376 44.5551C115.191 44.6596 115.98 44.6597 116.795 44.346C119.109 43.4572 121.502 42.8298 123.974 42.6729C124.211 42.6468 124.553 42.6991 124.632 42.4115C124.737 41.9932 124.29 41.9671 124.053 41.8364C123.133 41.4181 122.212 40.9737 121.265 40.6339C116.584 38.9085 111.877 37.2616 107.196 35.5102C105.987 35.0658 105.171 35.1704 104.172 36.0853C101.832 38.255 99.1229 39.8758 95.9409 40.5032C95.4149 40.6077 95.0205 40.843 94.5997 41.1306C89.1298 45.104 83.2129 45.6007 76.9803 43.3003C72.799 41.758 69.1173 39.2484 65.462 36.7911C64.6204 36.2421 63.7526 35.7193 62.9111 35.1704C62.3851 34.8305 62.0958 35.0396 61.9644 35.5886C60.7021 40.8692 57.2571 44.6858 53.2861 48.1103C49.1311 51.6655 44.2924 53.7045 38.8751 54.3319C35.0356 54.7763 31.1699 54.6718 27.3304 54.1228C27.12 54.0967 26.7782 54.1228 26.7519 53.8091C26.7256 53.4954 27.0412 53.4431 27.2778 53.3909C31.5117 52.7373 34.536 50.3585 36.7976 46.8555C37.7443 45.3655 38.7173 43.9016 39.5851 42.3592C42.1886 37.7584 46.3699 35.1703 51.1035 33.3143C52.6287 32.7131 54.1277 32.0595 55.837 32.0334C55.9685 32.0595 56.2578 31.9288 56.4945 31.589ZM97.4136 78.9048C99.2544 79.6368 100.753 79.0355 101.963 77.7023C103.488 76.0031 104.724 74.121 105.382 71.8989C106.144 69.4678 106.302 66.9844 106.197 64.4487C106.065 60.9457 107.301 58.044 110.142 55.9004C110.852 55.3776 111.535 54.8025 112.245 54.3058C113.481 53.417 114.218 52.1884 114.638 50.7767C115.033 49.4697 114.875 48.1626 114.796 46.8294C114.77 46.2543 114.402 46.3066 114.007 46.4634C112.614 47.0385 111.193 47.5613 109.8 48.1887C104.856 50.463 101.49 54.2274 99.1492 59.0112C98.9388 59.4556 98.8336 59.9523 98.6495 60.4229C98.5443 60.7104 99.0177 61.3117 98.334 61.2071C97.9395 61.1548 98.0447 60.5797 98.0447 60.2137C98.0447 59.5602 98.2814 58.9851 98.5706 58.41C100.832 53.6784 104.041 49.8356 108.906 47.5352C110.168 46.9339 111.43 46.385 112.719 45.836C112.929 45.7314 113.271 45.7053 113.218 45.3916C113.166 45.0256 112.824 45.1825 112.614 45.1563C107.486 44.9733 102.542 45.8883 97.7817 47.8227C95.8357 48.607 94.0474 49.6526 92.5748 51.2211C90.4973 53.4431 89.1035 57.6519 91.8911 61.0241C92.7326 62.0436 93.6004 63.037 94.5734 63.9258C95.599 64.8669 96.572 65.8603 97.4661 66.9059C98.8336 68.4744 99.6225 70.3304 99.9381 72.3433C100.359 74.9052 100.096 77.2579 97.4136 78.6434C97.4661 78.6957 97.4661 78.7741 97.4136 78.9048ZM30.6439 53.7045C33.8785 53.8875 37.0605 53.8091 40.2162 53.1817C48.1581 51.6132 54.154 47.1954 58.6772 40.66C60.3076 38.3073 61.044 35.6148 61.5962 32.5562C60.1236 33.4712 59.0716 34.4384 58.0197 35.4318C55.9159 37.4447 53.8384 39.4314 51.7083 41.4181C51.2612 41.8625 50.7353 42.2285 50.2619 42.6206C50.0778 42.7775 49.8675 42.9343 49.6308 43.0389C49.4204 43.1696 49.1311 43.3264 48.9734 43.065C48.8156 42.8036 49.1311 42.6468 49.3152 42.4899C52.6813 39.6144 55.6003 36.2944 58.8086 33.262C58.9927 33.1052 59.2031 32.896 59.0453 32.6608C58.9664 32.5562 58.7035 32.5562 58.5194 32.5824C55.7844 32.8176 53.181 33.6019 50.6827 34.6737C46.554 36.4251 42.846 38.7779 40.5055 42.7775C39.4536 44.5812 38.2702 46.2804 37.1394 48.0319C35.7457 50.2016 33.8522 51.8485 31.5117 52.9465C31.1962 53.1295 30.7754 53.1817 30.6439 53.7045ZM92.5485 18.7536C94.0475 18.5445 95.336 19.2503 96.6509 19.747C102.121 21.8383 107.223 24.5308 111.115 29.1317C109.958 26.4653 108.774 23.8512 107.459 21.3155C106.565 19.6424 105.329 18.1785 103.672 17.159C100.911 15.4336 97.9658 14.1266 94.7049 13.7345C90.0502 13.1855 85.3955 12.7149 80.7409 12.1921C79.3734 12.0353 78.0059 11.9045 76.4544 11.7216C77.0329 13.0548 77.5589 14.1789 78.0322 15.3291C78.2426 15.8258 78.6634 15.8519 79.1104 15.9826C81.3983 16.61 83.4232 17.7341 85.2904 19.198C86.8682 20.4528 88.4987 21.6553 90.1554 22.8316C94.3104 25.8117 98.9125 27.8508 103.909 28.9487C105.881 29.3931 107.854 29.8637 109.826 30.2819C110.036 30.3342 110.326 30.491 110.431 30.0205C105.724 24.4263 99.1492 21.6553 92.5485 18.7536ZM135.23 36.5036C135.861 35.2749 136.465 34.0463 137.386 33.0006C138.28 31.955 139.2 30.9093 140.147 29.8898C140.91 29.0533 141.699 28.2429 142.461 27.3802C143.881 25.7595 145.065 23.9819 145.854 21.969C147.195 18.5445 146.353 14.8062 143.671 12.2705C141.672 10.3622 139.148 9.31655 136.65 8.21862C136.492 8.14019 136.255 8.11406 136.15 8.32319C136.097 8.40161 136.176 8.55847 136.203 8.66304C136.387 9.05516 136.597 9.44727 136.781 9.86553C137.859 12.4797 137.964 15.0938 136.676 17.7079C135.94 19.1718 135.151 20.5835 134.099 21.8644C133.152 23.0408 132.179 24.191 131.259 25.4196C129.944 27.1711 129.549 29.1317 130.075 31.3014C130.627 33.5757 131.863 35.4318 133.441 37.131C133.599 37.3139 133.757 37.5753 134.046 37.4969C134.388 37.3923 134.23 37.0787 134.23 36.8695C133.941 33.2882 135.151 30.2035 137.307 27.4064C137.912 26.6221 138.464 25.7595 138.964 24.8707C140.621 21.9951 140.699 18.9104 140.121 15.7212C140.042 15.3291 139.49 14.754 139.937 14.571C140.515 14.3096 140.647 15.0677 140.857 15.4859C140.936 15.6428 141.015 15.8258 141.068 16.0087C141.725 19.5117 141.672 22.91 139.595 25.9947C138.78 27.1972 137.912 28.3736 137.123 29.5761C135.677 31.589 134.94 33.8894 135.23 36.5036ZM82.7395 25.7595C79.3997 21.7599 79.1367 21.3154 77.3485 16.5577C77.0329 15.7212 76.7436 14.9108 76.3755 14.1004C73.772 8.4016 69.6433 4.45426 63.4107 2.85964C60.4654 2.10155 57.4675 1.631 54.4432 1.29116C53.9962 1.23888 53.5228 1.16045 52.8654 1.42187C53.7069 1.97084 54.3381 2.33684 54.9429 2.78123C57.073 4.32358 58.6772 6.33646 59.9132 8.6369C61.044 10.7282 62.2011 12.8456 63.8578 14.6232C66.3298 17.2635 69.1436 19.4855 72.1941 21.42C73.5879 22.3088 75.1132 22.7794 76.7173 23.1976C74.7713 20.8972 73.1409 18.4399 71.3263 16.1133C68.9858 13.1332 66.8294 10.0224 63.7526 7.69579C63.5948 7.59122 63.4633 7.40826 63.5948 7.22527C63.7263 7.01614 63.9367 7.14684 64.0945 7.22527C64.8308 7.59124 65.4883 8.11407 66.0931 8.66304C67.3817 9.86554 68.5388 11.1987 69.6959 12.5319C71.9575 15.0938 73.7457 17.9955 75.8758 20.6619C77.6377 22.8578 79.6101 24.7661 82.7395 25.7595ZM65.8564 29.7068C66.6453 30.4388 67.4606 30.5695 68.2495 30.7786C73.0882 32.0857 77.7429 33.8633 82.3187 35.85C85.2114 37.1048 88.1042 38.3335 91.2073 39.1177C94.3893 39.9281 97.3084 39.6405 100.122 37.9413C101.306 37.2094 102.463 36.4251 103.541 35.5625C104.33 34.9351 104.277 34.7782 103.278 34.4123C93.653 31.0662 83.8703 28.3475 73.5879 27.8769C70.7741 27.7724 68.4336 28.7919 65.8564 29.7068ZM7.87018 36.948C8.29094 37.1571 8.6328 36.9218 8.97467 36.8172C11.2363 36.1114 13.5242 35.8239 15.891 35.9023C17.9685 35.9807 20.0723 35.9807 22.1498 35.9023C24.4377 35.8239 26.6993 35.6147 28.7768 34.5691C32.327 32.7653 35.2723 30.0989 38.8751 27.7462C37.192 27.7201 36.0086 28.1383 34.7727 28.4259C31.0647 29.2885 27.4882 30.4649 24.0432 32.0857C23.5699 32.3209 22.8335 32.9483 22.5706 32.4778C22.2813 31.9288 23.228 31.772 23.675 31.5106C26.3311 30.0205 29.145 28.9226 32.064 28.0599C33.563 27.6155 35.0619 27.2234 36.7976 26.7528C31.1699 24.4785 25.7789 25.2628 20.4405 26.6744C14.655 28.1645 10.9733 32.2164 7.87018 36.948ZM87.8149 39.1438C86.9997 38.804 86.2108 38.4903 85.3956 38.1504C80.6883 36.1637 76.0336 34.0201 71.1422 32.4778C69.3277 31.9027 67.5132 31.3798 65.6986 30.8309C63.9893 30.3342 62.7533 31.1968 62.4903 32.7915C62.464 32.9745 62.4377 33.1575 62.3851 33.3405C62.2011 33.8372 62.3325 34.177 62.8322 34.3861C65.1201 35.3533 67.0135 36.9741 69.091 38.255C72.0101 40.0065 74.8765 41.8364 78.1637 42.9082C82.9236 44.4505 87.4993 44.0323 91.9436 41.7841C92.3118 41.6011 92.8378 41.5488 92.8378 40.9737C85.08 40.1633 77.8744 38.8301 76.3229 37.8629C80.3201 38.0982 83.9755 39.1438 87.8149 39.1438ZM117.347 37.8106C116.216 36.5558 115.217 35.7193 114.533 34.6737C112.982 32.3209 110.694 31.3276 108.064 30.8309C107.328 30.674 106.591 30.4911 105.829 30.3603C99.4122 29.2624 93.6267 26.7267 88.4461 22.8055C86.9997 21.7076 85.5007 20.6096 84.0544 19.5117C82.6869 18.466 81.1879 17.6818 79.5575 17.1328C79.3471 17.0544 79.0315 16.9237 78.9 17.2112C78.8211 17.3419 78.8737 17.5772 78.9263 17.7602C80.0571 20.8972 81.6613 23.6943 84.4488 25.681C85.8426 26.6744 87.3153 27.5109 88.6301 28.635C88.9457 28.8964 89.4191 29.0271 89.8398 29.1317C97.8343 31.0923 105.592 33.7587 113.324 36.582C114.533 36.9741 115.664 37.5231 117.347 37.8106ZM52.6287 22.4134C46.1332 9.70869 34.1678 7.01613 26.3574 8.68917C26.7782 8.84602 27.0411 9.00288 27.3567 9.05516C29.5394 9.60413 31.4591 10.6759 33.3 11.9046C35.6404 13.4469 37.5602 15.4598 39.6114 17.3158C41.0315 18.5967 42.5041 19.7731 44.1609 20.6881C46.2647 21.8644 48.5263 22.6225 50.9983 22.6487C49.3941 21.3154 47.7111 20.1652 46.0806 18.9104C44.4765 17.6818 42.7408 16.5577 41.7415 14.6494C45.0813 17.5511 48.6841 19.9561 52.6287 22.4134ZM56.4156 30.4388C58.2301 31.8504 59.992 31.3798 61.7803 30.674C61.9644 30.5956 62.1222 30.491 62.0433 30.2819C62.017 30.2035 61.8855 30.0989 61.7803 30.0989C59.992 29.9682 58.2301 29.8898 56.4156 30.4388Z" fill="#2A2A2A"/>
</svg>
