<svg width="100" height="125" xmlns="http://www.w3.org/2000/svg">

 <g>
  <title>Layer 1</title>
  <path id="svg_1" d="m52,93.7l-5.2,0c-14.6,0 -26.5,-11.9 -26.5,-26.5l0,-34.3c0,-14.6 11.9,-26.5 26.5,-26.5l5.2,0c14.6,0 26.5,11.9 26.5,26.5l0,34.3c0,14.6 -11.9,26.5 -26.5,26.5zm-5.2,-82.3c-11.8,0 -21.5,9.6 -21.5,21.5l0,34.3c0,11.9 9.7,21.5 21.5,21.5l5.2,0c11.9,0 21.5,-9.7 21.5,-21.5l0,-34.3c0,-11.9 -9.7,-21.5 -21.5,-21.5l-5.2,0z"/>
  <path id="svg_2" d="m61.8,52.7l0,0c-0.9,-1 -2.5,-1 -3.5,0l-6.4,7l0,-25.4c0,-1.4 -1.1,-2.5 -2.5,-2.5s-2.5,1.1 -2.5,2.5l0,25.5l-6.4,-7c-0.9,-1 -2.5,-1 -3.5,0l0,0c-0.8,0.9 -0.8,2.3 0,3.2l10.6,11.7c0.9,1 2.5,1 3.5,0l10.7,-11.7c0.8,-1 0.8,-2.4 0,-3.3z"/>
 </g>
</svg>
